<svg xmlns="http://www.w3.org/2000/svg" width="1200" height="1200" viewBox="0 0 1200 1200">
<defs>
  <linearGradient id="sky" x1="0" y1="0" x2="1" y2="1">
    <stop offset="0" stop-color="#fff1dc"/>
    <stop offset=".28" stop-color="#d8ecff"/>
    <stop offset=".62" stop-color="#b9dcff"/>
    <stop offset="1" stop-color="#f6e8ff"/>
  </linearGradient>
  <radialGradient id="sunGlow" cx=".08" cy=".16" r=".58">
    <stop offset="0" stop-color="#fffdf2" stop-opacity="1"/>
    <stop offset=".1" stop-color="#fff3ba" stop-opacity=".94"/>
    <stop offset=".28" stop-color="#ffc76f" stop-opacity=".56"/>
    <stop offset=".55" stop-color="#ffb45d" stop-opacity=".16"/>
    <stop offset="1" stop-color="#ffb45d" stop-opacity="0"/>
  </radialGradient>
  <linearGradient id="peach" x1="0" y1="0" x2="1" y2="1">
    <stop offset="0" stop-color="#fff5e5" stop-opacity=".92"/>
    <stop offset=".62" stop-color="#ffe2cf" stop-opacity=".64"/>
    <stop offset="1" stop-color="#d8c9ff" stop-opacity=".52"/>
  </linearGradient>
  <filter id="soft" x="-20%" y="-20%" width="140%" height="140%">
    <feGaussianBlur stdDeviation="16"/>
  </filter>
  <filter id="softer" x="-30%" y="-30%" width="160%" height="160%">
    <feGaussianBlur stdDeviation="34"/>
  </filter>
</defs>
<rect width="1200" height="1200" fill="url(#sky)"/>
<rect width="1200" height="1200" fill="url(#sunGlow)"/>
<g opacity=".48">
  <path d="M-80 720 C120 560 220 650 350 580 C480 510 620 610 710 560 C850 480 980 540 1280 420 L1280 1200 L-80 1200 Z" fill="url(#peach)" filter="url(#softer)"/>
</g>
<g opacity=".72" filter="url(#soft)" fill="#ffffff">
  <ellipse cx="85" cy="560" rx="190" ry="82"/>
  <ellipse cx="210" cy="520" rx="150" ry="102"/>
  <ellipse cx="340" cy="585" rx="210" ry="86"/>
  <ellipse cx="1020" cy="820" rx="230" ry="110"/>
  <ellipse cx="1160" cy="735" rx="185" ry="105"/>
  <ellipse cx="810" cy="1080" rx="330" ry="105"/>
  <ellipse cx="260" cy="1080" rx="300" ry="120"/>
</g>
<g opacity=".34" fill="#ffe9d4" filter="url(#soft)">
  <ellipse cx="120" cy="930" rx="280" ry="120"/>
  <ellipse cx="960" cy="1040" rx="310" ry="130"/>
</g>
<g stroke="#fff8de" stroke-linecap="round" opacity=".72">
  <path d="M70 130 L570 380" stroke-width="18"/>
  <path d="M80 120 L690 270" stroke-width="10"/>
  <path d="M82 125 L410 520" stroke-width="8"/>
  <path d="M80 125 L760 160" stroke-width="6"/>
</g>
<g opacity=".75"><path d="M954 170H986M970 154V186" stroke="#fff9db" stroke-width="3" stroke-linecap="round" opacity=".85"/>
<circle cx="970" cy="170" r="3" fill="#ffffff" opacity=".9"/>
<path d="M810 300H830M820 290V310" stroke="#fff9db" stroke-width="3" stroke-linecap="round" opacity=".85"/>
<circle cx="820" cy="300" r="3" fill="#ffffff" opacity=".9"/>
<path d="M1033 425H1057M1045 413V437" stroke="#fff9db" stroke-width="3" stroke-linecap="round" opacity=".85"/>
<circle cx="1045" cy="425" r="3" fill="#ffffff" opacity=".9"/>
<path d="M341 180H359M350 171V189" stroke="#fff9db" stroke-width="3" stroke-linecap="round" opacity=".85"/>
<circle cx="350" cy="180" r="3" fill="#ffffff" opacity=".9"/>
<path d="M232 530H248M240 522V538" stroke="#fff9db" stroke-width="3" stroke-linecap="round" opacity=".85"/>
<circle cx="240" cy="530" r="3" fill="#ffffff" opacity=".9"/>
<path d="M882 690H898M890 682V698" stroke="#fff9db" stroke-width="3" stroke-linecap="round" opacity=".85"/>
<circle cx="890" cy="690" r="3" fill="#ffffff" opacity=".9"/>
<path d="M623 95H637M630 88V102" stroke="#fff9db" stroke-width="3" stroke-linecap="round" opacity=".85"/>
<circle cx="630" cy="95" r="3" fill="#ffffff" opacity=".9"/></g>
<g opacity=".28"><circle cx="364" cy="1061" r="1.1" fill="#efe7ff" opacity="0.34"/>
<circle cx="587" cy="204" r="1.1" fill="#fff4c9" opacity="0.30"/>
<circle cx="792" cy="839" r="0.7" fill="#ffffff" opacity="0.28"/>
<circle cx="759" cy="691" r="0.9" fill="#efe7ff" opacity="0.32"/>
<circle cx="146" cy="1034" r="1.4" fill="#efe7ff" opacity="0.54"/>
<circle cx="108" cy="411" r="0.7" fill="#fff4c9" opacity="0.46"/>
<circle cx="639" cy="213" r="1.4" fill="#efe7ff" opacity="0.47"/>
<circle cx="595" cy="728" r="0.7" fill="#efe7ff" opacity="0.61"/>
<circle cx="579" cy="223" r="1.1" fill="#fff4c9" opacity="0.34"/>
<circle cx="224" cy="840" r="0.9" fill="#efe7ff" opacity="0.34"/>
<circle cx="942" cy="550" r="1.4" fill="#efe7ff" opacity="0.46"/>
<circle cx="41" cy="401" r="0.9" fill="#efe7ff" opacity="0.53"/>
<circle cx="1064" cy="1005" r="1.4" fill="#ffffff" opacity="0.58"/>
<circle cx="201" cy="153" r="1.1" fill="#fff4c9" opacity="0.51"/>
<circle cx="783" cy="988" r="0.7" fill="#efe7ff" opacity="0.51"/>
<circle cx="549" cy="1030" r="0.7" fill="#efe7ff" opacity="0.44"/>
<circle cx="889" cy="517" r="0.9" fill="#fff4c9" opacity="0.60"/>
<circle cx="183" cy="94" r="0.7" fill="#efe7ff" opacity="0.31"/>
<circle cx="909" cy="740" r="1.4" fill="#ffffff" opacity="0.41"/>
<circle cx="459" cy="1009" r="0.7" fill="#ffffff" opacity="0.42"/>
<circle cx="107" cy="181" r="1.4" fill="#ffffff" opacity="0.44"/>
<circle cx="623" cy="244" r="0.9" fill="#ffffff" opacity="0.41"/>
<circle cx="838" cy="188" r="0.7" fill="#ffffff" opacity="0.47"/>
<circle cx="988" cy="159" r="0.9" fill="#fff4c9" opacity="0.41"/></g>
</svg>