<svg xmlns="http://www.w3.org/2000/svg" viewBox="0 0 512 512">
  <defs>
    <linearGradient id="bg" x1="64" x2="448" y1="60" y2="448" gradientUnits="userSpaceOnUse">
      <stop stop-color="#ffd3e7"/>
      <stop offset=".42" stop-color="#9d8cff"/>
      <stop offset="1" stop-color="#18163a"/>
    </linearGradient>
    <linearGradient id="cloud" x1="118" x2="394" y1="176" y2="360" gradientUnits="userSpaceOnUse">
      <stop stop-color="#ffffff"/>
      <stop offset="1" stop-color="#dcd6ff"/>
    </linearGradient>
  </defs>
  <rect width="512" height="512" rx="118" fill="url(#bg)"/>
  <circle cx="151" cy="151" r="8" fill="#fff" opacity=".8"/>
  <circle cx="380" cy="134" r="8" fill="#7ce5c2" opacity=".9"/>
  <path d="M163 333c-42 0-76-32-76-72 0-38 31-69 70-72 18-41 57-68 101-68 55 0 101 41 109 95 34 8 59 37 59 72 0 41-35 75-78 75H163Z" fill="url(#cloud)"/>
  <ellipse cx="256" cy="284" rx="93" ry="64" fill="#ffe4bf"/>
  <circle cx="208" cy="281" r="11" fill="#4a3554"/>
  <circle cx="304" cy="281" r="11" fill="#4a3554"/>
  <circle cx="188" cy="310" r="13" fill="#ff9a9e" opacity=".48"/>
  <circle cx="324" cy="310" r="13" fill="#ff9a9e" opacity=".48"/>
  <ellipse cx="256" cy="330" rx="68" ry="44" fill="#c9c0ff"/>
  <rect x="216" y="306" width="80" height="48" rx="24" fill="#ff9a76"/>
  <circle cx="256" cy="330" r="14" fill="#25225c"/>
</svg>
