<svg xmlns="http://www.w3.org/2000/svg" viewBox="0 0 512 512">
  <defs>
    <linearGradient id="bg" x1="82" x2="430" y1="54" y2="448" gradientUnits="userSpaceOnUse">
      <stop stop-color="#1f1b48"/>
      <stop offset=".58" stop-color="#101029"/>
      <stop offset="1" stop-color="#8f7cff"/>
    </linearGradient>
  </defs>
  <rect width="512" height="512" rx="116" fill="url(#bg)"/>
  <path d="M365 178c-45 0-81-36-81-81 0-17 5-33 14-47-59 18-102 73-102 138 0 79 64 143 143 143 65 0 120-43 138-102-14 9-30 14-47 14-36 0-65-29-65-65Z" fill="#ffd37a"/>
  <circle cx="150" cy="146" r="8" fill="#f7f3ff" opacity=".8"/>
  <circle cx="184" cy="348" r="7" fill="#7ce5c2" opacity=".8"/>
  <ellipse cx="256" cy="292" rx="100" ry="76" fill="#c9c0ff"/>
  <rect x="203" y="255" width="106" height="66" rx="33" fill="#ff9a76"/>
  <path d="M190 330c34 31 98 31 132 0" fill="none" stroke="#f7f3ff" stroke-linecap="round" stroke-width="28"/>
  <circle cx="256" cy="288" r="16" fill="#101029" opacity=".72"/>
</svg>
