<svg xmlns="http://www.w3.org/2000/svg" viewBox="0 0 512 512">
  <defs>
    <linearGradient id="bg" x1="72" x2="440" y1="62" y2="450" gradientUnits="userSpaceOnUse">
      <stop stop-color="#8f7cff"/>
      <stop offset=".55" stop-color="#25225c"/>
      <stop offset="1" stop-color="#101029"/>
    </linearGradient>
    <linearGradient id="shield" x1="144" x2="368" y1="172" y2="348" gradientUnits="userSpaceOnUse">
      <stop stop-color="#f7f3ff"/>
      <stop offset="1" stop-color="#c9c0ff"/>
    </linearGradient>
  </defs>
  <rect width="512" height="512" rx="116" fill="url(#bg)"/>
  <circle cx="154" cy="146" r="9" fill="#f7f3ff" opacity=".75"/>
  <circle cx="370" cy="122" r="7" fill="#7ce5c2" opacity=".75"/>
  <circle cx="398" cy="354" r="10" fill="#ffd37a" opacity=".85"/>
  <path d="M156 270c0-58 45-105 100-105s100 47 100 105c0 60-45 108-100 108s-100-48-100-108Z" fill="url(#shield)"/>
  <path d="M190 270c0-36 30-65 66-65s66 29 66 65c0 37-30 68-66 68s-66-31-66-68Z" fill="#101029" opacity=".12"/>
  <rect x="206" y="230" width="100" height="70" rx="35" fill="#ff9a76"/>
  <path d="M194 308c28 35 96 35 124 0" fill="none" stroke="#ffd37a" stroke-linecap="round" stroke-width="30"/>
  <circle cx="256" cy="263" r="18" fill="#101029" opacity=".72"/>
</svg>
