<svg xmlns="http://www.w3.org/2000/svg" viewBox="0 0 512 512">
  <defs>
    <linearGradient id="bg" x1="70" x2="442" y1="54" y2="454" gradientUnits="userSpaceOnUse">
      <stop stop-color="#b8a8ff"/>
      <stop offset=".54" stop-color="#6d62d9"/>
      <stop offset="1" stop-color="#25225c"/>
    </linearGradient>
    <radialGradient id="glow" cx="50%" cy="34%" r="70%">
      <stop stop-color="#fff7d8" stop-opacity=".58"/>
      <stop offset=".5" stop-color="#ffb6d6" stop-opacity=".2"/>
      <stop offset="1" stop-color="#101029" stop-opacity="0"/>
    </radialGradient>
    <linearGradient id="face" x1="176" x2="336" y1="150" y2="374" gradientUnits="userSpaceOnUse">
      <stop stop-color="#ffe4bf"/>
      <stop offset="1" stop-color="#ffc992"/>
    </linearGradient>
  </defs>
  <rect width="512" height="512" rx="118" fill="url(#bg)"/>
  <rect width="512" height="512" rx="118" fill="url(#glow)"/>
  <circle cx="132" cy="150" r="8" fill="#fff7d8" opacity=".88"/>
  <circle cx="392" cy="138" r="7" fill="#7ce5c2" opacity=".9"/>
  <circle cx="382" cy="378" r="10" fill="#ffd37a" opacity=".9"/>
  <path d="M174 226c4-69 39-115 82-115s78 46 82 115c25 20 42 51 42 86 0 67-55 121-124 121S132 379 132 312c0-35 17-66 42-86Z" fill="url(#face)"/>
  <path d="M205 122c14-27 44-43 78-34-20 12-30 28-31 48-14-11-30-15-47-14Z" fill="#5c452f" opacity=".55"/>
  <circle cx="199" cy="300" r="15" fill="#ff9a9e" opacity=".55"/>
  <circle cx="313" cy="300" r="15" fill="#ff9a9e" opacity=".55"/>
  <path d="M205 252c11-10 28-10 39 0" fill="none" stroke="#4a3554" stroke-linecap="round" stroke-width="12"/>
  <path d="M268 252c11-10 28-10 39 0" fill="none" stroke="#4a3554" stroke-linecap="round" stroke-width="12"/>
  <ellipse cx="256" cy="328" rx="78" ry="52" fill="#f7f3ff"/>
  <rect x="208" y="298" width="96" height="58" rx="29" fill="#ff8fc7"/>
  <circle cx="256" cy="327" r="17" fill="#6d62d9"/>
  <path d="M204 362c30 24 74 24 104 0" fill="none" stroke="#8f7cff" stroke-linecap="round" stroke-width="18"/>
</svg>
