<svg xmlns="http://www.w3.org/2000/svg" viewBox="0 0 512 512">
  <defs>
    <linearGradient id="bg" x1="96" x2="416" y1="64" y2="448" gradientUnits="userSpaceOnUse">
      <stop stop-color="#8f7cff"/>
      <stop offset="0.52" stop-color="#1f1b48"/>
      <stop offset="1" stop-color="#101029"/>
    </linearGradient>
    <linearGradient id="moon" x1="154" x2="344" y1="124" y2="340" gradientUnits="userSpaceOnUse">
      <stop stop-color="#fff3c7"/>
      <stop offset="1" stop-color="#ffd37a"/>
    </linearGradient>
  </defs>
  <rect width="512" height="512" rx="116" fill="url(#bg)"/>
  <circle cx="164" cy="134" r="10" fill="#f7f3ff" opacity=".8"/>
  <circle cx="356" cy="120" r="7" fill="#f7f3ff" opacity=".65"/>
  <circle cx="382" cy="344" r="8" fill="#7ce5c2" opacity=".75"/>
  <path d="M318 368c-95 0-172-77-172-172 0-40 14-77 37-106-68 26-116 91-116 168 0 99 80 179 179 179 77 0 142-48 168-116-29 23-66 37-106 37Z" fill="url(#moon)"/>
  <circle cx="294" cy="300" r="74" fill="#ff9a76"/>
  <circle cx="264" cy="276" r="14" fill="#101029" opacity=".78"/>
  <circle cx="324" cy="276" r="14" fill="#101029" opacity=".78"/>
  <path d="M258 330c23 17 50 17 73 0" fill="none" stroke="#101029" stroke-linecap="round" stroke-width="16" opacity=".78"/>
</svg>
