<svg xmlns="http://www.w3.org/2000/svg" width="1200" height="1200" viewBox="0 0 1200 1200">
<defs>
  <linearGradient id="night" x1="0" y1="0" x2="1" y2="1">
    <stop offset="0" stop-color="#05091b"/>
    <stop offset=".42" stop-color="#0c1030"/>
    <stop offset=".76" stop-color="#151044"/>
    <stop offset="1" stop-color="#070b22"/>
  </linearGradient>
  <radialGradient id="nebulaA" cx=".15" cy=".55" r=".55">
    <stop offset="0" stop-color="#ff9d63" stop-opacity=".58"/>
    <stop offset=".24" stop-color="#8e4cff" stop-opacity=".34"/>
    <stop offset=".58" stop-color="#3b1a72" stop-opacity=".13"/>
    <stop offset="1" stop-color="#1a0d3c" stop-opacity="0"/>
  </radialGradient>
  <radialGradient id="nebulaB" cx=".88" cy=".44" r=".5">
    <stop offset="0" stop-color="#8b63ff" stop-opacity=".36"/>
    <stop offset=".3" stop-color="#4d2e91" stop-opacity=".25"/>
    <stop offset=".72" stop-color="#11123b" stop-opacity="0"/>
  </radialGradient>
  <radialGradient id="vignette" cx=".5" cy=".47" r=".72">
    <stop offset=".45" stop-color="#000" stop-opacity="0"/>
    <stop offset="1" stop-color="#01030c" stop-opacity=".72"/>
  </radialGradient>
  <filter id="blur18" x="-20%" y="-20%" width="140%" height="140%">
    <feGaussianBlur stdDeviation="18"/>
  </filter>
  <filter id="blur36" x="-30%" y="-30%" width="160%" height="160%">
    <feGaussianBlur stdDeviation="36"/>
  </filter>
  <mask id="moonCut"><rect width="1200" height="1200" fill="black"/><circle cx="950" cy="185" r="78" fill="white"/><circle cx="982" cy="152" r="78" fill="black"/></mask>
  <radialGradient id="moon" cx=".35" cy=".28" r=".8"><stop offset="0" stop-color="#fff8df"/><stop offset=".55" stop-color="#ffe7ba"/><stop offset="1" stop-color="#d4b97b"/></radialGradient>
</defs>
<rect width="1200" height="1200" fill="url(#night)"/>
<rect width="1200" height="1200" fill="url(#nebulaA)"/>
<rect width="1200" height="1200" fill="url(#nebulaB)"/>
<g opacity=".48" filter="url(#blur36)">
  <path d="M-140 520 C100 360 260 530 390 390 C520 250 590 430 700 370 C820 310 920 430 1260 250 L1260 740 C1050 620 910 730 760 660 C610 590 480 720 320 650 C170 590 40 740 -140 670 Z" fill="#5c2f95"/>
  <path d="M-100 840 C160 720 290 890 460 780 C610 680 760 860 900 780 C1010 720 1110 770 1280 700 L1280 1240 L-100 1240 Z" fill="#1a2257"/>
</g>
<g opacity=".7" filter="url(#blur18)">
  <ellipse cx="70" cy="850" rx="250" ry="150" fill="#20163f"/>
  <ellipse cx="1130" cy="900" rx="260" ry="170" fill="#1c173d"/>
  <ellipse cx="1030" cy="560" rx="210" ry="110" fill="#23164d"/>
  <ellipse cx="160" cy="360" rx="230" ry="125" fill="#2d1d58"/>
</g>
<g><circle cx="42" cy="925" r="1.1" fill="#f3ddff" opacity="0.60"/>
<circle cx="169" cy="950" r="0.8" fill="#ffffff" opacity="0.94"/>
<circle cx="159" cy="454" r="2.2" fill="#c7d8ff" opacity="0.43"/>
<circle cx="137" cy="202" r="2.2" fill="#c7d8ff" opacity="0.77"/>
<circle cx="31" cy="460" r="0.8" fill="#ffe7a6" opacity="0.59"/>
<circle cx="414" cy="1046" r="0.8" fill="#ffe7a6" opacity="0.59"/>
<circle cx="122" cy="953" r="1.1" fill="#c7d8ff" opacity="0.35"/>
<circle cx="106" cy="344" r="1.0" fill="#ffe7a6" opacity="0.84"/>
<circle cx="1024" cy="472" r="1.4" fill="#ffffff" opacity="0.37"/>
<circle cx="311" cy="301" r="1.0" fill="#c7d8ff" opacity="0.48"/>
<path d="M 301 301 H 321 M 311 291 V 311" stroke="#c7d8ff" stroke-width="1.2" stroke-linecap="round" opacity="0.56"/>
<circle cx="478" cy="139" r="2.2" fill="#f3ddff" opacity="0.59"/>
<circle cx="1102" cy="560" r="1.4" fill="#ffffff" opacity="0.56"/>
<path d="M 1089 560 H 1115 M 1102 547 V 573" stroke="#ffffff" stroke-width="1.2" stroke-linecap="round" opacity="0.64"/>
<circle cx="312" cy="1062" r="2.2" fill="#ffffff" opacity="0.56"/>
<circle cx="798" cy="67" r="2.2" fill="#f3ddff" opacity="0.35"/>
<circle cx="399" cy="505" r="1.4" fill="#ffe7a6" opacity="0.94"/>
<circle cx="411" cy="507" r="1.4" fill="#ffffff" opacity="0.76"/>
<circle cx="650" cy="1133" r="1.4" fill="#c7d8ff" opacity="0.41"/>
<circle cx="28" cy="29" r="1.1" fill="#c7d8ff" opacity="0.92"/>
<circle cx="442" cy="623" r="1.0" fill="#c7d8ff" opacity="0.35"/>
<circle cx="862" cy="90" r="0.8" fill="#f3ddff" opacity="0.47"/>
<circle cx="52" cy="310" r="1.0" fill="#c7d8ff" opacity="0.54"/>
<circle cx="845" cy="408" r="2.8" fill="#ffe7a6" opacity="0.40"/>
<path d="M 832 408 H 858 M 845 395 V 421" stroke="#ffe7a6" stroke-width="1.2" stroke-linecap="round" opacity="0.48"/>
<circle cx="1059" cy="457" r="1.0" fill="#ffe7a6" opacity="0.73"/>
<circle cx="225" cy="291" r="2.2" fill="#ffe7a6" opacity="0.62"/>
<path d="M 218 291 H 232 M 225 284 V 298" stroke="#ffe7a6" stroke-width="1.2" stroke-linecap="round" opacity="0.70"/>
<circle cx="101" cy="273" r="2.8" fill="#f3ddff" opacity="0.39"/>
<circle cx="83" cy="688" r="1.1" fill="#ffe7a6" opacity="0.73"/>
<circle cx="637" cy="830" r="1.8" fill="#ffe7a6" opacity="0.87"/>
<circle cx="1015" cy="621" r="1.1" fill="#f3ddff" opacity="0.53"/>
<circle cx="1057" cy="807" r="2.8" fill="#c7d8ff" opacity="0.44"/>
<path d="M 1047 807 H 1067 M 1057 797 V 817" stroke="#c7d8ff" stroke-width="1.2" stroke-linecap="round" opacity="0.52"/>
<circle cx="663" cy="27" r="2.8" fill="#ffe7a6" opacity="0.93"/>
<circle cx="876" cy="610" r="2.2" fill="#ffffff" opacity="0.89"/>
<circle cx="1068" cy="475" r="0.8" fill="#f3ddff" opacity="0.48"/>
<circle cx="985" cy="696" r="2.2" fill="#ffffff" opacity="0.26"/>
<circle cx="755" cy="35" r="1.0" fill="#ffe7a6" opacity="0.47"/>
<circle cx="395" cy="457" r="1.8" fill="#f3ddff" opacity="0.33"/>
<circle cx="651" cy="137" r="1.1" fill="#ffffff" opacity="0.72"/>
<circle cx="347" cy="156" r="0.8" fill="#f3ddff" opacity="0.44"/>
<circle cx="1046" cy="738" r="1.1" fill="#ffffff" opacity="0.39"/>
<circle cx="238" cy="488" r="1.8" fill="#ffe7a6" opacity="0.74"/>
<circle cx="303" cy="676" r="1.0" fill="#ffffff" opacity="0.65"/>
<circle cx="863" cy="402" r="1.0" fill="#ffffff" opacity="0.81"/>
<circle cx="1022" cy="749" r="2.8" fill="#c7d8ff" opacity="0.79"/>
<circle cx="183" cy="663" r="0.8" fill="#f3ddff" opacity="0.63"/>
<circle cx="666" cy="1178" r="2.8" fill="#c7d8ff" opacity="0.80"/>
<circle cx="1012" cy="431" r="2.2" fill="#ffffff" opacity="0.90"/>
<circle cx="1001" cy="327" r="1.4" fill="#f3ddff" opacity="0.65"/>
<circle cx="640" cy="775" r="1.0" fill="#f3ddff" opacity="0.91"/>
<circle cx="879" cy="536" r="1.4" fill="#ffffff" opacity="0.61"/>
<circle cx="1164" cy="952" r="1.8" fill="#f3ddff" opacity="0.53"/>
<path d="M 1154 952 H 1174 M 1164 942 V 962" stroke="#f3ddff" stroke-width="1.2" stroke-linecap="round" opacity="0.61"/>
<circle cx="193" cy="28" r="1.8" fill="#ffe7a6" opacity="0.85"/>
<circle cx="433" cy="346" r="1.0" fill="#f3ddff" opacity="0.93"/>
<circle cx="63" cy="111" r="1.0" fill="#ffffff" opacity="0.37"/>
<circle cx="1016" cy="546" r="2.2" fill="#ffffff" opacity="0.85"/>
<circle cx="592" cy="623" r="1.0" fill="#c7d8ff" opacity="0.63"/>
<circle cx="586" cy="569" r="1.1" fill="#c7d8ff" opacity="0.40"/>
<circle cx="174" cy="923" r="0.8" fill="#ffffff" opacity="0.33"/>
<circle cx="748" cy="385" r="1.8" fill="#c7d8ff" opacity="0.67"/>
<circle cx="166" cy="940" r="1.1" fill="#ffe7a6" opacity="0.92"/>
<circle cx="530" cy="242" r="2.8" fill="#f3ddff" opacity="0.30"/>
<circle cx="1043" cy="1016" r="1.4" fill="#ffffff" opacity="0.51"/>
<path d="M 1036 1016 H 1050 M 1043 1009 V 1023" stroke="#ffffff" stroke-width="1.2" stroke-linecap="round" opacity="0.59"/>
<circle cx="770" cy="639" r="2.8" fill="#c7d8ff" opacity="0.78"/>
<circle cx="339" cy="666" r="2.8" fill="#f3ddff" opacity="0.53"/>
<path d="M 329 666 H 349 M 339 656 V 676" stroke="#f3ddff" stroke-width="1.2" stroke-linecap="round" opacity="0.61"/>
<circle cx="861" cy="1071" r="2.8" fill="#ffe7a6" opacity="0.83"/>
<circle cx="623" cy="312" r="2.8" fill="#ffffff" opacity="0.31"/>
<circle cx="290" cy="581" r="1.4" fill="#f3ddff" opacity="0.49"/>
<circle cx="966" cy="443" r="1.8" fill="#ffe7a6" opacity="0.78"/>
<circle cx="1174" cy="570" r="2.8" fill="#c7d8ff" opacity="0.95"/>
<circle cx="1058" cy="562" r="2.2" fill="#ffffff" opacity="0.52"/>
<circle cx="203" cy="763" r="1.4" fill="#ffe7a6" opacity="0.55"/>
<circle cx="1010" cy="132" r="0.8" fill="#ffffff" opacity="0.51"/>
<circle cx="1163" cy="987" r="1.8" fill="#ffffff" opacity="0.39"/>
<circle cx="335" cy="896" r="1.8" fill="#f3ddff" opacity="0.81"/>
<circle cx="601" cy="725" r="0.8" fill="#ffe7a6" opacity="0.80"/>
<circle cx="499" cy="502" r="1.8" fill="#ffffff" opacity="0.33"/>
<circle cx="1094" cy="223" r="2.8" fill="#ffffff" opacity="0.63"/>
<circle cx="820" cy="769" r="1.8" fill="#c7d8ff" opacity="0.34"/>
<circle cx="863" cy="49" r="1.8" fill="#ffffff" opacity="0.58"/>
<circle cx="77" cy="783" r="1.0" fill="#ffffff" opacity="0.81"/>
<circle cx="225" cy="253" r="2.8" fill="#ffffff" opacity="0.57"/>
<circle cx="1025" cy="655" r="1.4" fill="#c7d8ff" opacity="0.54"/>
<circle cx="224" cy="979" r="1.1" fill="#ffffff" opacity="0.77"/>
<circle cx="1084" cy="601" r="1.0" fill="#f3ddff" opacity="0.64"/>
<circle cx="631" cy="1159" r="2.8" fill="#ffffff" opacity="0.28"/>
<circle cx="261" cy="363" r="1.0" fill="#ffffff" opacity="0.41"/>
<circle cx="576" cy="118" r="1.4" fill="#c7d8ff" opacity="0.88"/>
<circle cx="589" cy="830" r="1.0" fill="#f3ddff" opacity="0.77"/>
<path d="M 582 830 H 596 M 589 823 V 837" stroke="#f3ddff" stroke-width="1.2" stroke-linecap="round" opacity="0.85"/>
<circle cx="852" cy="260" r="1.0" fill="#c7d8ff" opacity="0.29"/>
<circle cx="805" cy="658" r="2.2" fill="#c7d8ff" opacity="0.44"/>
<circle cx="149" cy="727" r="1.4" fill="#ffffff" opacity="0.90"/>
<circle cx="379" cy="156" r="0.8" fill="#ffe7a6" opacity="0.28"/>
<path d="M 369 156 H 389 M 379 146 V 166" stroke="#ffe7a6" stroke-width="1.2" stroke-linecap="round" opacity="0.36"/>
<circle cx="345" cy="220" r="1.1" fill="#f3ddff" opacity="0.49"/>
<circle cx="403" cy="1040" r="2.8" fill="#ffe7a6" opacity="0.72"/>
<circle cx="148" cy="412" r="2.2" fill="#ffffff" opacity="0.55"/>
<circle cx="931" cy="551" r="1.4" fill="#ffffff" opacity="0.34"/>
<path d="M 921 551 H 941 M 931 541 V 561" stroke="#ffffff" stroke-width="1.2" stroke-linecap="round" opacity="0.42"/>
<circle cx="434" cy="29" r="1.0" fill="#ffe7a6" opacity="0.86"/>
<circle cx="61" cy="127" r="1.8" fill="#c7d8ff" opacity="0.58"/>
<circle cx="886" cy="476" r="1.1" fill="#ffffff" opacity="0.57"/>
<circle cx="977" cy="1080" r="1.8" fill="#ffe7a6" opacity="0.72"/>
<circle cx="1112" cy="969" r="1.8" fill="#f3ddff" opacity="0.91"/>
<circle cx="783" cy="706" r="1.8" fill="#c7d8ff" opacity="0.43"/>
<circle cx="330" cy="35" r="2.8" fill="#ffffff" opacity="0.27"/>
<circle cx="952" cy="135" r="0.8" fill="#ffe7a6" opacity="0.91"/>
<circle cx="528" cy="907" r="1.0" fill="#ffffff" opacity="0.93"/>
<circle cx="976" cy="946" r="2.2" fill="#ffffff" opacity="0.42"/>
<circle cx="1059" cy="789" r="1.1" fill="#ffffff" opacity="0.79"/>
<circle cx="856" cy="974" r="2.2" fill="#ffe7a6" opacity="0.26"/>
<path d="M 846 974 H 866 M 856 964 V 984" stroke="#ffe7a6" stroke-width="1.2" stroke-linecap="round" opacity="0.34"/>
<circle cx="453" cy="761" r="1.0" fill="#ffe7a6" opacity="0.50"/>
<circle cx="1114" cy="87" r="1.0" fill="#c7d8ff" opacity="0.33"/>
<circle cx="265" cy="698" r="1.0" fill="#f3ddff" opacity="0.30"/>
<circle cx="700" cy="389" r="1.1" fill="#f3ddff" opacity="0.75"/>
<path d="M 690 389 H 710 M 700 379 V 399" stroke="#f3ddff" stroke-width="1.2" stroke-linecap="round" opacity="0.83"/>
<circle cx="1155" cy="489" r="1.1" fill="#c7d8ff" opacity="0.46"/>
<circle cx="167" cy="102" r="0.8" fill="#f3ddff" opacity="0.85"/>
<circle cx="317" cy="969" r="1.4" fill="#ffe7a6" opacity="0.61"/>
<circle cx="813" cy="1153" r="2.2" fill="#f3ddff" opacity="0.43"/>
<circle cx="102" cy="138" r="2.8" fill="#c7d8ff" opacity="0.90"/>
<circle cx="360" cy="688" r="1.1" fill="#f3ddff" opacity="0.27"/>
<circle cx="420" cy="903" r="2.8" fill="#ffffff" opacity="0.84"/>
<circle cx="894" cy="507" r="1.8" fill="#ffe7a6" opacity="0.52"/>
<path d="M 887 507 H 901 M 894 500 V 514" stroke="#ffe7a6" stroke-width="1.2" stroke-linecap="round" opacity="0.60"/>
<circle cx="312" cy="462" r="1.4" fill="#f3ddff" opacity="0.42"/>
<circle cx="727" cy="859" r="1.0" fill="#ffffff" opacity="0.32"/>
<path d="M 717 859 H 737 M 727 849 V 869" stroke="#ffffff" stroke-width="1.2" stroke-linecap="round" opacity="0.40"/>
<circle cx="66" cy="791" r="1.0" fill="#f3ddff" opacity="0.88"/>
<circle cx="841" cy="430" r="1.8" fill="#f3ddff" opacity="0.86"/>
<circle cx="100" cy="168" r="1.0" fill="#ffffff" opacity="0.87"/>
<circle cx="179" cy="1145" r="1.1" fill="#ffe7a6" opacity="0.60"/>
<circle cx="233" cy="209" r="2.2" fill="#c7d8ff" opacity="0.72"/>
<circle cx="76" cy="133" r="2.8" fill="#ffffff" opacity="0.63"/>
<circle cx="155" cy="905" r="1.4" fill="#c7d8ff" opacity="0.51"/>
<circle cx="565" cy="170" r="2.2" fill="#ffe7a6" opacity="0.44"/>
<circle cx="252" cy="268" r="0.8" fill="#c7d8ff" opacity="0.67"/>
<circle cx="97" cy="634" r="2.8" fill="#c7d8ff" opacity="0.92"/></g>
<g mask="url(#moonCut)">
  <rect x="850" y="80" width="220" height="220" fill="url(#moon)"/>
</g>
<circle cx="930" cy="160" r="4" fill="#c6ad7b" opacity=".3"/>
<circle cx="914" cy="205" r="7" fill="#c6ad7b" opacity=".22"/>
<rect width="1200" height="1200" fill="url(#vignette)"/>
</svg>